<?xml version="1.0" encoding="UTF-8" standalone="no" ?>
<!DOCTYPE svg PUBLIC "-//W3C//DTD SVG 1.1//EN" "http://www.w3.org/Graphics/SVG/1.1/DTD/svg11.dtd">
<svg xmlns="http://www.w3.org/2000/svg" xmlns:xlink="http://www.w3.org/1999/xlink" version="1.1" width="1080" height="1080" viewBox="0 0 1080 1080" xml:space="preserve">
<desc>Created with Fabric.js 5.2.4</desc>
<defs>
</defs>
<g transform="matrix(1 0 0 1 540 540)" id="6fd21f20-b8bb-42e6-a073-f5069591c882"  >
<rect style="stroke: none; stroke-width: 1; stroke-dasharray: none; stroke-linecap: butt; stroke-dashoffset: 0; stroke-linejoin: miter; stroke-miterlimit: 4; fill: rgb(255,255,255); fill-rule: nonzero; opacity: 1; visibility: hidden;" vector-effect="non-scaling-stroke"  x="-540" y="-540" rx="0" ry="0" width="1080" height="1080" />
</g>
<g transform="matrix(1 0 0 1 540 540)" id="cfb2ced3-97ad-4bf2-ab68-bfc785926e6f"  >
</g>
<g transform="matrix(56.84 0 0 56.84 540 540)"  >
<path style="stroke: none; stroke-width: 1; stroke-dasharray: none; stroke-linecap: butt; stroke-dashoffset: 0; stroke-linejoin: miter; stroke-miterlimit: 4; fill: rgb(145,28,28); fill-rule: nonzero; opacity: 1;"  transform=" translate(-9.5, -9.18)" d="M 9.5 18.35 L 8.23125 17.03 C 3.725 12.36 0.75 9.28 0.75 5.5 C 0.75 2.42 2.8675 0 5.5625 0 C 7.085 0 8.54625 0.81 9.5 2.09 C 10.4537 0.81 11.915 0 13.4375 0 C 16.1325 0 18.25 2.42 18.25 5.5 C 18.25 9.28 15.275 12.36 10.7688 17.04 L 9.5 18.35 Z" stroke-linecap="round" />
</g>
</svg>